<?xml version="1.0" encoding="utf-8"?>
<!-- Generator: Adobe Illustrator 23.0.6, SVG Export Plug-In . SVG Version: 6.00 Build 0)  -->
<svg version="1.1" id="Layer_1" xmlns="http://www.w3.org/2000/svg" xmlns:xlink="http://www.w3.org/1999/xlink" x="0px" y="0px"
	 viewBox="0 0 595.22614 239.24239" style="enable-background:new 0 0 595.22614 239.24239;" xml:space="preserve">
<style type="text/css">
	.st0{fill:#FFFFFF;}
	.st1{fill:#042F5F;}
	.st2{fill:#A9A295;}
	.st3{fill:#F26F21;}
	.st4{fill:#48658A;}
	.st5{fill:#9D4C3D;}
</style>
<g>
	<path class="st0" d="M585.88025,204.49922c-3.0578-1.35994-7.26221-2.83672-9.58942-5.30981
		c-2.94507-3.13004-4.5152-7.03435-4.5152-12.21423V171.02c0.24146,0.00146,7.21765,0.02327,7.21765,0.02327
		c8.45197,0,15.32825-6.87581,15.32825-15.32779v-5.93913c0-8.45198-6.87628-15.32828-15.30109-15.32828l-7.27972-0.01987
		l-0.09497-26.76389c0-8.45198-6.87585-15.3278-15.32782-15.3278h-5.93915c-8.45197,0-15.32825,6.87582-15.32825,15.36173
		l0.09113,26.62475l-1.22949-0.0097c-3.81372,0-7.29846,1.40891-9.98364,3.72202c-2.7088-2.39165-6.25836-3.85728-10.15851-3.85728
		l-4.67615,0.01456c0.53378-0.79997,1.14807-1.54709,1.84476-2.24379c1.7803-1.78027,6.96793-4.52537,9.64615-5.80871
		c7.59039-3.32155,11.1922-11.72116,8.03308-19.42942l-2.25299-5.49551c-1.55341-3.78844-4.48853-6.7449-8.26581-8.32544
		c-3.77679-1.58006-7.94244-1.59412-11.73135-0.04169c-0.04947,0.02084-14.49973,6.33862-21.32123,13.28909
		c-7.64038,7.65687-12.59094,17.37813-14.40857,28.05062l-2.05325-0.0097c-3.91739,0-7.4848,1.48988-10.19748,3.91644
		c-2.69376-2.34753-6.20316-3.78117-10.0484-3.78117h-5.93912c-4.02939,0-7.70099,1.56308-10.43976,4.11473
		c-6.16605-2.54292-12.85471-3.85826-19.79984-3.85826c-11.78409,0-22.92554,3.7836-32.03317,10.74861
		c-1.91452-6.28383-7.44772-10.8703-14.66245-10.8703c-17.24896,0-30.32886,4.42065-42.47031,17.96526
		c-7.92407,8.83984-12.79459,22.12991-12.79459,32.94252c0,0.43973-0.01685,4.02794-0.01685,4.02794
		c-3.87436-5.71805-12.87277-13.47528-21.4314-16.97621c-0.04547-0.01842-0.09018-0.0383-0.13528-0.05672
		c0.11588-0.05479,0.70914-1.44237,9.76636-1.44237c8.64996,0,15.32828-6.8763,15.32828-15.32828v-5.93864
		c0-8.45198-6.34735-14.98065-15.32828-15.32828c-10.44638-0.40434-18.07822,2.16524-18.5296,2.30583l-0.02036-28.81954
		c0-8.45199-6.87628-15.32829-15.32828-15.32829h-5.93912c-7.49373,0-13.73714,5.40922-15.05914,12.52599
		c-2.74236-2.57007-6.41656-4.15739-10.46262-4.15739h-5.93864c-2.59734,0-5.04317,0.65403-7.18907,1.79919
		c1.71265-11.80068,0.61996-29.01445-2.88127-38.19464c-2.24716-5.89258-5.8407-10.34911-9.01099-14.28106
		c-0.49355-0.61185-0.97498-1.20867-1.43411-1.79046c3.85341,0.94347,8.44472,0.79802,13.49321-0.51876
		c8.17224-2.13178,16.54375-9.87301,16.823-22.36409c0.15564-7.03483-2.08379-19.55984-18.82727-24.4086
		C204.45546-2.86647,191.4632,5.07081,187.1937,7.679c-8.25203,5.04108-13.70605,15.34816-14.57001,26.6165
		c-0.86978-0.42665-1.64598-0.79609-2.3325-1.11898c-0.73402-4.03715-2.2782-8.40011-4.16708-11.45209
		c-0.47464-0.76651-1.01668-1.50296-1.59363-2.19966c0.67245-4.32465-0.49548-8.42483-3.29391-11.55536
		c-3.13731-3.50966-8.00497-5.37527-13.35551-5.10862c-3.88879,0.19102-7.16817,1.75168-9.59956,3.41124
		c-0.37187-0.03103-0.74275-0.05818-1.11316-0.08048c-5.61139-0.35295-11.70372,2.14439-16.29406,6.67655
		c-2.58607,2.55455-3.7768,4.63494-5.03687,6.83703c-0.31271,0.5464-0.66179,1.1568-1.08456,1.86076
		c-0.17308,0.28799-3.93485,6.66734-1.75556,12.71361c-0.48676,0.64579-0.92213,1.35073-1.30612,2.11481
		c-1.43654,2.85902-2.41831,7.26125,0.81403,12.23994c0.02957,0.14254,0.06206,0.28605,0.09697,0.4315
		c-2.79115,0.13527-5.04996,0.13381-6.10834,0.12314c-5.56096-0.06448-9.59617,0.05285-12.54053,0.80239
		c-4.43082,1.12819-16.20048,4.12442-15.27106,14.92975c0.05042,0.5847,0.15108,1.15098,0.28653,1.70077
		c-1.13692,2.14003-1.78707,4.57677-1.78707,7.16428v5.2851c0,2.81588,0.77639,5.44849,2.10693,7.71844
		c-0.32095,2.48667,0.09261,3.84958,1.12995,5.95324c-0.30399,0.18909-4.27363,1.44595-4.27363,8.31963
		c0,0-0.00069,47.42531-0.00069,62.89166c0,10.29112-2.44266,17.61394-15.08839,17.61394
		c-12.16333,0-14.42027-8.31575-14.42027-17.61394c0-15.46635-0.00041-59.58598-0.00041-61.86534l0,0v0.0001
		c0-5.04356-2.02464-9.41631-8.02897-9.41631c-7.64404,0-30.57614-0.00009-30.57614-0.00009
		c-6.1153,0-8.02915,3.37991-8.02915,9.4163c0,0-0.00091,58.02303-0.00091,81.52303c0,29.5,18.11626,54.75,60.61626,54.75
		c43.75,0,52.36464-27.37018,52.60889-27.83717c0.00363-0.00728,0.00758-0.01407,0.01121-0.02086l0.01157,12.96863
		c0,8.452,6.8763,15.3278,15.32829,15.3278h5.93912c8.452,0,15.32829-6.87581,15.32829-15.3278l-0.06789-36.96269
		c0-8.66579,7.05035-15.71614,15.71614-15.71614c8.6658,0,15.71565,7.05035,15.71565,15.71614l-0.06738,36.96269
		c0,8.452,6.8763,15.3278,15.32828,15.3278h5.93864c5.07843,0,9.57484-2.49249,12.36569-6.3076
		c2.78253,3.8922,7.32785,6.44287,12.46664,6.44287h5.93864c5.27461,0,9.93477-2.67867,12.69366-6.74637
		c2.75885,4.0677,7.4187,6.74637,12.69331,6.74637h5.93912c8.452,0,15.32828-6.8763,15.32828-15.31714l0.01505-13.68228
		c0.00726,0.00726,0.01404,0.01503,0.02036,0.02229c0.01501,0.01697,0.03006,0.03442,0.04556,0.05139
		c0.00436,0.00534,0.00922,0.01067,0.01407,0.01552l0.18036,0.2075c0.01697,0.02084,0.03394,0.04073,0.05139,0.06108
		c0.38785,0.45526,0.75195,0.9362,1.08359,1.43073c0.04364,0.06789,0.08823,0.13527,0.13333,0.20169
		c1.49664,2.30681,2.3548,4.96802,2.48813,7.71457v3.83157c0,8.452,6.87628,15.3278,15.32828,15.3278h5.93863
		c3.87802,0,7.41367-1.45885,10.11627-3.84225c2.72067,2.46292,6.31476,3.97752,10.26489,3.97752h5.93863
		c8.452,0,15.32828-6.8763,15.32828-15.33749l-0.03491-36.91956c0-4.1918,1.61096-7.73152,3.73813-10.20268
		c5.16183-5.99731,11.54538-5.4325,11.54538-5.4325c-1.6264,5.14062-2.48264,10.56778-2.48264,16.14134
		c0,28.84137,23.11121,51.43381,52.61487,51.43381c7.40088,0,14.02408-1.24261,19.99329-3.77051
		c2.70047,2.37517,6.24115,3.81754,10.11154,3.81754h5.94202c8.17032-0.00291,14.87933-6.44383,15.30841-14.51427
		c0.43732-4.04491,0.3587-49.127,0.3338-54.13138c1.48813,0.48483,3.07175,0.75391,4.71808,0.75391l1.29449,0.00243
		l-0.00339,52.69629c0,8.452,6.87628,15.3278,15.32828,15.3278h5.93863c8.452,0,15.32828-6.87581,15.32828-15.33264
		l-0.02472-52.68564l7.37225-0.00824c3.81085,0,7.29333-1.40648,9.97766-3.71619c2.69739,2.38824,6.2251,3.85097,10.08594,3.85097
		l1.34784,0.0063v15.99347c-0.18524,14.58601,5.2196,28.12576,15.22449,38.1321c3.09955,3.09901,6.97186,6.00652,11.50934,8.64156
		c2.57007,1.49181,10.24872,5.56047,15.64777,5.56047c2.00574,0,4.06287-0.1978,5.96869-0.99535
		c3.77679-1.58054,6.71198-4.53749,8.26483-8.32544l2.25543-5.50182C597.26154,216.65723,593.58313,207.76259,585.88025,204.49922z
		 M124.44404,136.52217c0.72918,4.05266,3.24397,7.55942,6.90102,9.62138c0.20029,0.11296,0.40028,0.21332,0.60022,0.3132
		c-3.6516,3.06361-6.87454,6.6203-9.57842,10.55952l-0.04272-54.92747c0-0.32047-0.014-0.63706-0.04091-0.94929
		c-0.02364-0.27684-0.06158-0.54883-0.10527-0.8179c-0.00527-0.03249-0.00721-0.06594-0.01279-0.09794
		c-0.1032-0.60264-0.25647-1.18298-0.45258-1.73762c2.44001-0.78251,4.69579-1.57957,6.60812-2.29808
		c-2.36886,7.78487-0.35732,16.14716,5.65163,22.33354c-2.08766,1.64405-4.06818,3.62553-6.14663,6.08603
		C124.9308,128.0343,123.69837,132.37689,124.44404,136.52217z M211.77635,149.64157l0.07132,12.74464
		c-4.56512-8.73657-11.52324-16.02594-20.00443-20.99832c0.36198-0.14787,0.72409-0.29042,1.08595-0.44653
		c8.99857-3.88298,14.87497-10.17603,18.9697-16.96166c0.64105,5.23177,3.91982,9.65969,8.46954,11.89425
		C215.28407,138.37178,211.77635,143.605,211.77635,149.64157z M423.44876,197.41495
		c-0.09891,0.11005-0.19604,0.22156-0.29834,0.32822c-0.19098,0.19781-0.39035,0.38593-0.59125,0.57404
		c-0.12778,0.1183-0.25443,0.23756-0.3866,0.35101c-2.79703,2.44789-6.44897,3.94261-10.45782,3.94261
		c-8.78265,0-15.90244-7.11967-15.90244-15.90231s7.11978-15.90231,15.90244-15.90231c8.78268,0,15.90244,7.11967,15.90244,15.90231
		C427.61719,190.83827,426.02972,194.58792,423.44876,197.41495z"/>
	<path id="t_1_" class="st1" d="M545.43359,144.10812l-11.19342-0.08772c-2.98175,0-5.39893,2.41719-5.39893,5.39896v5.93884
		c0,2.98178,2.41718,5.39896,5.39893,5.39896l11.19336,0.054h0.03644v25.94199c-0.16736,11.97894,4.2193,22.94557,12.31641,31.04401
		c7.5423,7.54234,19.06506,11.46199,12.64301,8.83l5.49615,2.2527l0.00067,0.00029c2.75836,1.13095,5.91132-0.18835,7.0423-2.94676
		l2.25269-5.49612c0,0,0.00067-0.00157,0.00098-0.00235c1.12988-2.75848-0.19031-5.91068-2.94879-7.0406
		c0,0-2.77234-1.23366-3.05981-1.33354c-3.54309-1.18103-6.74872-3.20563-9.61694-6.07384
		c-5.06018-5.06152-7.42224-11.64149-7.42224-19.23378v-25.94199c0,0,15.6853,0.08098,11.20825,0.08098h5.93884
		c2.98175,0,5.39899-2.41719,5.39899-5.39896v-5.93886c0-2.98177-2.41724-5.39896-5.39899-5.39896l-17.14709-0.04724
		l-0.12958-36.66567c0-2.98176-2.41718-5.39896-5.39893-5.39896h-5.93884c-2.98175,0-5.39899,2.4172-5.39899,5.39896
		L545.43359,144.10812z"/>
	<path id="f_1_" class="st1" d="M516.81104,117.29826c0,0-2.32019,1.11583-2.94788,1.333
		c-3.54306,1.18119-6.74869,3.2058-9.61688,6.07383c-5.06152,5.06152-7.42355,11.64204-7.42355,19.23379l17.30637-0.05345
		c2.98175,0,5.39893,2.41719,5.39893,5.39896v5.93886c0,2.98177-2.41718,5.39896-5.39893,5.39896l-17.30637,0.02025
		l0.02969,62.60767c0,2.98177-2.41721,5.39896-5.39896,5.39896h-5.93887c-2.98175,0-5.39896-2.41719-5.39896-5.39896
		l0.00406-62.60767l-11.20688-0.02025c-2.98175,0-5.39896-2.41719-5.39896-5.39896v-5.93886
		c0-2.98177,2.41721-5.39896,5.39896-5.39896l11.20688,0.05399c-0.16873-11.97893,4.21793-22.94556,12.31638-31.044
		c5.63211-5.76218,18.02713-11.08231,18.02713-11.08231c2.75842-1.13111,5.9115,0.18807,7.0426,2.94648
		c0.00012,0.00027,0.00024,0.00053,0.00031,0.00081l2.25275,5.49493c1.13098,2.75845-0.18829,5.91148-2.94672,7.0425
		C516.81177,117.29796,516.8114,117.2981,516.81104,117.29826z"/>
	<path id="a_1_" class="st1" d="M453.9361,223.11919c-0.00632,2.98059-2.42377,5.3938-5.40436,5.3949h-5.93887
		c-2.98175,0-5.39896-2.41719-5.39896-5.39896v-2.86819c-7.18735,5.91187-15.2048,8.21991-24.70563,8.21991
		c-23.78915,0-42.68552-17.71533-42.68552-41.50449s18.89636-42.6855,42.68552-42.6855c9.49542,0,18.02039,3.0126,24.84061,8.14296
		v-3.00046c0-2.98177,2.41721-5.39896,5.39896-5.39896h5.93887c2.98175,0,5.39896,2.41719,5.39896,5.39896
		C454.19522,149.49225,454.62177,223.50114,453.9361,223.11919z M412.48828,160.81116
		c-14.17227,0-26.15118,11.97894-26.15118,26.1512c0,14.17227,11.97891,24.97018,26.15118,24.97018
		c13.37994,0,23.75137-9.62634,24.86761-22.62975v-4.69304C436.23965,171.48894,425.86826,160.81116,412.48828,160.81116z"/>
	<path id="r_1_" class="st1" d="M371.19165,155.49318c0,2.98177-2.41721,5.39896-5.39896,5.39896h-5.05475
		c-0.29153,0.02295-1.12302,0.11203-1.45639,0.15793c0.06345-0.00945-1.48605,0.24565-1.58594,0.2659
		c-0.18494,0.0378-0.76663,0.16331-1.20935,0.27534c-0.16602,0.04185-0.65601,0.17142-1.01773,0.27939
		c-0.09042,0.02699-0.94617,0.29964-1.14862,0.37119c-0.06479,0.02295-1.0123,0.37657-1.13107,0.42517
		c-0.05261,0.02159-1.01636,0.4346-1.10947,0.47781c-0.05127,0.02429-0.99072,0.48184-1.08386,0.5291
		c-0.1228,0.06479-0.84088,0.45486-1.05548,0.57904c-0.86789,0.50345-1.33221,0.82469-1.03525,0.63303
		c-0.63574,0.40897-1.25076,0.84538-1.84509,1.30923l-0.06479,0.04858c-0.07965,0.06209-0.5925,0.47917-0.77609,0.63303
		c-0.07153,0.06209-0.74777,0.65868-0.87192,0.77339c-0.20111,0.18762-1.08926,1.07036-1.26202,1.25392
		c-0.16467,0.17682-1.33087,1.53195-1.55222,1.8154c0.10666-0.13634-0.41437,0.53854-0.71402,0.96371
		c0.02023-0.02969-0.35495,0.51694-0.40491,0.59253c-0.0054,0.00676-0.78555,1.25931-0.73291,1.16888
		c0.02563-0.0405-0.33472,0.58174-0.45081,0.795c-0.35367,0.65327-1.10678,2.304-0.97318,2.00301
		c0.0567-0.13362-0.20786,0.4832-0.30908,0.73965c-0.02295,0.05804-0.3941,1.02985-0.61685,1.73576
		c0.02429-0.08098-0.19705,0.64923-0.25778,0.87193c-0.00272,0.00674-0.17142,0.65192-0.19705,0.75854
		c0.0351-0.14441-0.108,0.44678-0.17548,0.76935c-0.34015,1.60619-0.54126,4.05733-0.46295,3.13814
		c-0.03238,0.37929-0.08636,1.41182-0.06345,0.92322c-0.00946,0.21326-0.02292,0.63303-0.02292,0.63034
		c-0.0054,0.2146-0.00812,0.42923-0.00812,0.64653l0.03506,36.92888c0,2.98177-2.41721,5.39896-5.39896,5.39896h-5.93884
		c-2.98175,0-5.39896-2.41719-5.39896-5.39896l-0.00137-36.92886c0-0.35634,0.00406-0.70996,0.01352-1.0636l0,0
		c0.01218-0.494,0.0351-0.98532,0.06479-1.47527l0,0c-0.02158,0.36307,0.08502-1.52925,0.3064-3.17189l0,0
		c0.36172-2.68193,0.90433-4.89011,0.64651-3.60651c0.14578-0.65056,0.63843-2.49026,0.76126-2.89519
		c0.15518-0.51558,0.49939-1.5549,0.52637-1.63182c0.0459-0.12822,0.22269-0.63573,0.42786-1.17561
		c0.01486-0.03915,0.21191-0.57094,0.53046-1.33084c0.11743-0.2821,0.76797-1.77222,0.87866-1.95578
		c0.20789-0.43192,1.21613-2.33505,1.26605-2.42278c0.44272-0.78825,0.91019-1.5603,1.40237-2.31616l0,0
		c0.08771-0.13496,0.41843-0.63841,0.78149-1.15807c0.14578-0.20651,0.54395-0.76126,0.64383-0.89488l0,0
		c-0.09583,0.12822,0.78421-1.03929,1.10812-1.43747c0.24701-0.3064,0.59659-0.72346,0.74777-0.90163l0,0
		c0.83548-0.97992,1.71326-1.91978,2.63333-2.81961l0,0c0.34283-0.33609,1.62643-1.53331,2.5564-2.3067
		c0.00418-0.00438,0.0087-0.00844,0.01352-0.01215l0,0c1.09601-0.91107,2.19739-1.70743,2.3364-1.8073l0,0
		c0.67218-0.48456,1.35919-0.94933,2.06107-1.39429l0,0c1.15808-0.7356,2.91946-1.70741,3.87509-2.18118h0.00134
		c0.31586-0.15657,0.63348-0.30954,0.95294-0.45891l0,0c0.50751-0.23485,1.99628-0.89622,1.28088-0.57094
		c0.12418-0.054,1.45639-0.58578,1.58731-0.63573c0.32797-0.12418,1.11487-0.41032,1.77893-0.62762
		c0.0675-0.02295,1.64264-0.50751,2.32291-0.68837l0,0c0.47241-0.12418,0.67621-0.17278,0.60333-0.15387
		c0.30368-0.07559,0.60739-0.14847,0.91379-0.21866l0,0c0.3887-0.08638,1.49146-0.31044,1.99896-0.39952l0,0
		c0.22675-0.0405,1.99628-0.30234,2.24194-0.32933c0.26993-0.03374,1.19046-0.25916,2.15012-0.25916h0.95428
		c0.65598-0.03104,1.31598-0.04677,1.98004-0.04723c0.30475,0.00002,0.60928,0.01576,0.91241,0.04723h2.09213
		c2.98175,0,5.39896,2.41719,5.39896,5.39896v5.93886V155.49318z"/>
	<path id="k_1_" class="st1" d="M310.85831,220.27257v2.97754c0,2.98177-2.41721,5.39896-5.39896,5.39896h-5.93884
		c-2.98175,0-5.39896-2.41719-5.39896-5.39896v-4.04247l0,0c-0.17642-4.66074-1.62833-9.18372-4.19772-13.07628
		c-0.00134,0-0.00134,0-0.00134-0.00136c-0.57419-0.87036-1.2012-1.70471-1.87747-2.49837c0-0.00134,0-0.00134-0.00134-0.00134
		c0.13361,0.15657-0.108-0.13228-0.36984-0.42653c0.26318,0.29694-0.22134-0.26454-0.78555-0.84358l-0.01486-0.01485
		c-1.60306-1.64478-3.41879-3.06786-5.39896-4.23143c0.16196,0.09583-0.16602-0.09988-0.4967-0.28345
		c0.02158,0.01215-1.97604-0.99745-1.56302-0.80309c-0.00134,0-0.00269-0.00134-0.00403-0.00134
		c-0.00327-0.00111-0.00641-0.00246-0.00946-0.00406c-0.96475-0.45346-1.95694-0.8461-2.97076-1.17561
		c-0.00272-0.00136-0.00677-0.00136-0.00946-0.0027c-2.16766-0.70322-4.3475-1.0285-3.17053-0.8085
		c-0.28613-0.05264-1.07571-0.17816-1.20126-0.19571c-1.03391-0.14308-1.57651-0.17006-1.78571-0.18491l0,0l-0.03238,28.73053
		c0,2.98177-2.41718,5.39896-5.39896,5.39896h-5.93884c-2.98177,0-5.39896-2.41719-5.39896-5.39896V107.57743
		c0-2.98176,2.41719-5.39896,5.39896-5.39896h5.93884c2.98178,0,5.39896,2.4172,5.39896,5.39896l0.03241,44.90179
		c0.91241-0.68701,1.57108-1.13109,2.01785-1.42937c0.00134,0,0.00134-0.00136,0.00269-0.00136
		c-0.15115,0.10124,1.88965-1.26469,3.98984-2.35124c0-0.00136,0-0.00136,0.00137-0.00136l0,0
		c1.1756-0.60873,1.57648-0.79094,1.2728-0.63301c0.629-0.29965,1.26651-0.584,1.9126-0.85304l0,0
		c0.02142-0.00661,0.04221-0.01518,0.06207-0.02563c0.42651-0.1768,0.85666-0.34688,1.29037-0.51021l0,0
		c0.01212-0.00404,0.02295-0.0081,0.03506-0.01213l0,0c0.65195-0.24567,1.31152-0.47511,1.97873-0.68837l0,0
		c0.0108-0.0027,0.02026-0.00676,0.03104-0.00945c0.45755-0.14577,0.91739-0.28387,1.37946-0.41435l0,0
		c-0.11609,0.03239,0.08908-0.02835,0.65594-0.17816l0,0c-0.82333,0.2173,1.03931-0.27939,1.52792-0.37389
		c0.45755-0.10258,3.70233-0.65868,3.51068-0.63168l0,0c0.01294-0.00246,0.026-0.00427,0.03915-0.0054
		c0.5777-0.07964,2.38092-0.34013,2.80069-0.34013h0.92593c1.1041-0.0513,3.02747,0.01079,2.91949,0h2.09341
		c2.98175,0,5.39896,2.41719,5.39896,5.39896v5.93886c0,2.98177-2.41721,5.39896-5.39896,5.39896h-5.05612
		c-0.00861,0.00029-0.01718,0.00119-0.02563,0.0027c-0.21329,0.01619-0.73019,0.06883-0.77747,0.07423
		c0.03375-0.00404-1.63318,0.23351-1.60214,0.2281c0.09445-0.01755-0.71674,0.13498-0.98666,0.19302
		c-0.13229,0.02968-1.51984,0.37523-1.18237,0.28479c0.12955-0.0351-1.617,0.48726-1.51172,0.45216
		c0.09717-0.03239-0.67081,0.23215-1.01364,0.36307c0.25644-0.09853-1.27011,0.5237-1.24176,0.51155
		c-0.14172,0.06343-0.8382,0.39008-0.97992,0.46027c0.10394-0.05128-1.09869,0.5777-1.16617,0.61549
		c-0.30099,0.16872-0.78555,0.45757-0.93134,0.548c-0.02295,0.01485-1.21069,0.7869-1.71957,1.16077
		c-0.43866,0.32259-1.29169,1.01231-1.03119,0.8004c-0.36172,0.29425-0.95831,0.82199-0.80579,0.68701
		c-0.14172,0.12553-0.70187,0.64519-0.80444,0.74507c0.21732-0.20923-0.4967,0.4832-0.9205,0.93671
		c-0.21866,0.23485-0.74911,0.83415-0.49805,0.54933c-0.40628,0.46162-1.03528,1.2458-0.74777,0.88948
		c0.09583-0.12013-0.27939,0.35092-0.41705,0.53178c-0.09448,0.12419-0.46432,0.62494-0.65329,0.89758
		c0.0621-0.09044-0.29694,0.43326-0.40897,0.60738c0.09311-0.14308-0.54529,0.86519-0.69376,1.11894
		c-0.07831,0.13498-0.43869,0.78554-0.52643,0.95157c-0.00208,0.00346-0.00385,0.00708-0.0054,0.0108
		c0.14578-0.27806-0.84222,1.74791-1.02444,2.19063c0.02432-0.06075-0.50479,1.32678-0.5426,1.43611l0,0
		c0.91919,0.06345,1.82889,0.15523,2.72919,0.27536c0.0054,0,0.01077,0.00134,0.01617,0.00134l0,0
		c0.31314,0.0432,0.62628,0.08774,0.93674,0.13768l0,0c0.00403,0,0.00809,0.00136,0.01215,0.00136
		c3.1369,0.49391,6.20779,1.34155,9.1539,2.5267l0,0c0.00812,0.0027,0.0162,0.0054,0.02295,0.0081
		c0.28616,0.11607,0.57095,0.23351,0.85303,0.35498l0,0c0.00137,0,0.00406,0.00136,0.00543,0.00136
		c1.14862,0.49265,2.26981,1.03391,3.36353,1.62373l0.0162,0.00812l0,0c0.26724,0.14441,0.53314,0.29019,0.7977,0.44002l0,0
		c0.00809,0.00404,0.01486,0.00943,0.02292,0.01349l0,0c1.07578,0.61188,2.12183,1.26741,3.13815,1.96657l0,0
		c0.25107,0.17412,0.50076,0.34958,0.74911,0.5291c0.0054,0.00406,0.01215,0.0081,0.01889,0.01349l0,0
		c0.24567,0.17683,0.48862,0.3577,0.73019,0.5399l0.01215,0.0081v0.00136c0.98257,0.74236,1.93103,1.52565,2.84528,2.3499
		c0.00143,0.00212,0.00327,0.00395,0.0054,0.0054l0,0c0.22406,0.20244,0.44632,0.40764,0.66675,0.61549l0,0l0.01624,0.01619l0,0
		c2.24249,2.11275,4.24875,4.46294,5.9834,7.0092l0,0l0.00406,0.00406l0,0c0.17142,0.2524,0.34149,0.50751,0.50751,0.76396l0,0
		c0.00269,0.00404,0.00674,0.0081,0.00943,0.01213l0,0c0.84161,1.2966,1.61209,2.63797,2.30807,4.01819l0.00406,0.0081l0,0
		c0.39548,0.78554,0.51831,1.0636,0.65195,1.35649c-0.63574-1.38348,0.5831,1.07169,1.53061,3.80762l0,0
		c0.00024,0.00287,0.00122,0.00563,0.00269,0.0081l0,0c0.51486,1.49088,0.94565,3.00948,1.29037,4.54861
		c0.00098,0.00211,0.00143,0.00444,0.00134,0.00676l0,0c0.33939,1.56647,0.59976,3.14902,0.78015,4.74164
		c0.15662,0.51358,0.23621,1.04755,0.23615,1.58447c0,0,0.00134,4.1194,0.00134,2.90869
		C310.85965,220.23749,310.85831,220.25504,310.85831,220.27257z M270.24734,194.65451
		c-0.00348-0.00111-0.00714-0.00157-0.0108-0.00136l-0.0054,4.43661L270.24734,194.65451z"/>
	<path id="i_1_" class="st1" d="M233.50636,228.78403h-5.93886c-2.98177,0-5.39896-2.41719-5.39896-5.39896l-0.07019-68.03632
		c-0.02191,0.00027-0.0437,0.00345-0.06479,0.00943v-5.93884c0-2.98178,2.41719-5.39897,5.39896-5.39897h5.93886
		c2.98177,0,5.39896,2.41719,5.39896,5.39897l0.03104,67.01726c0.06996,0.33197,0.1048,0.67036,0.10394,1.0096v5.93886
		c0.00002,2.98177-2.41718,5.39896-5.39894,5.39897H233.50636z M233.37138,127.28362h-5.93886
		c-2.98177,0-5.39896-2.4172-5.39896-5.39896v-5.93885c0-2.98177,2.41719-5.39896,5.39896-5.39896h5.93886
		c2.98177,0,5.39896,2.4172,5.39896,5.39896v5.93885C238.77034,124.86642,236.35315,127.28362,233.37138,127.28362z"/>
	<path id="n-2_1_" class="st1" d="M208.13414,223.25011c0,2.98177-2.41719,5.39896-5.39896,5.39896h-5.93886
		c-2.98177,0-5.39896-2.41719-5.39896-5.39896v-5.93886h0.06749v-31.02376c0-14.16338-11.48167-25.64505-25.64505-25.64505
		c-14.16336,0-25.64505,11.48167-25.64505,25.64505v31.02376h0.06749v5.93886c0,2.98177-2.41719,5.39896-5.39896,5.39896h-5.93886
		c-2.98176,0-5.39896-2.41719-5.39896-5.39896l-0.03334-36.96262c0-23.45172,19.0648-42.34808,42.34781-42.34808
		s42.34807,18.89636,42.34807,42.34808L208.13414,223.25011z"/>
	<path id="monkey_1_" class="st2" d="M197.90384,99.27019c0,0,2.87091-4.57467,2.35262-12.47874s-1.15269-14.86063-7.42357-24.97018
		c-5.7202-9.2198-8.60188-10.52298-9.8531-20.92096c-1.25121-10.39799,2.90329-20.80731,9.71812-24.97018
		s15.0658-7.81607,22.94557-5.53393c7.815,2.26351,11.8372,6.77785,11.6631,14.65237
		c-0.16466,7.36958-4.96164,11.81751-9.40228,12.97585c-4.44064,1.15834-10.41595,1.45974-12.24889-2.11814
		c-1.73712-3.38974,1.18913-4.42458,4.72409-4.99403c5.51233-0.88813,9.3456-3.33251,7.96346-8.50336
		c-1.91258-7.1547-12.05048-4.12319-18.6264-0.67487c-7.63142,4.00157-7.87437,16.14181-6.47874,22.00075
		c2.09885,8.81299,11.27032,14.64629,14.84714,24.02536c3.5768,9.37907,3.93314,30.29585,1.21475,38.3326
		c-3.98442,11.77959-9.42928,20.95862-19.97614,25.51009c-10.00967,4.31915-18.20259,4.29082-24.23997,2.78856
		c-3.64969-0.90837-10.44563-3.82854-16.38719-1.16887c-5.66754,2.53616-9.77481,5.38681-12.14764,4.04921
		c-2.12314-1.19722-2.95459-3.9399-0.80984-6.47874c4.21658-4.99175,7.30478-6.93996,12.4176-8.63834
		c4.87526-1.61969,7.69351-0.5399,7.69351-0.5399s-9.73837-5.81292-13.90231-9.71812
		c-4.16394-3.9052-6.0293-10.26019-2.33505-16.25964c2.89249-4.69709,7.75694-7.22111,13.84697-7.43949
		c5.95235-0.21299,11.11104,4.32538,11.11104,4.32538s-2.33502-7.54006-5.48126-15.17959
		c-2.97214-7.21544-5.80118-9.90709-5.80118-9.90709s-4.39612,4.61463-7.96617,7.61253
		c-4.34212,3.64619-11.13535,7.7745-14.44221,9.3132c-5.34321,2.48582-25.95548,10.08256-34.14841,7.69352
		c-2.80746-0.81875-7.805-1.07777-7.25795-4.34373c0.26077-1.55774,9.21967,0.16116,12.79189-1.05523
		c3.8261-1.3029,3.44697-7.6873,5.66891-7.69351c1.79515-0.00499,0.6534,3.64309,4.18419,3.77927
		c3.75903,0.1451,16.45414-6.85789,18.62641-8.63834c5.47455-4.48694,19.24593-15.78682,10.39299-11.74273
		c-3.11655,1.42371-16.24789,4.69413-27.93961,3.91424c-4.54971-0.30341-2.9678,5.91672-5.39896,5.93886
		c-2.81164,0.02551-1.50887-5.46497-5.12901-6.7487c-6.8116-2.41603-13.58108,0.54448-13.76734-1.61969
		c-0.20084-2.3337,4.05218-3.49273,7.82848-4.45414c2.30022-0.58565,7.54613-0.52262,10.06055-0.49562
		c3.03556,0.03253,10.93073-0.04886,18.149-1.39401c10.04342-1.87169,17.81657-5.80388,17.81657-5.80388
		s1.0528-4.67186-3.37436-3.37435c-6.11298,1.79124-10.56561,0.18896-11.74273,0.26995
		c-1.17711,0.08099-4.85906,0.6063-5.12186-2.4379s-2.71783-3.35451-1.62684-5.52556
		c1.10962-2.20804,2.67356-1.09464,3.67817-2.43291c1.00462-1.33826,2.63686-3.77319,2.05161-6.05547
		c-0.58524-2.28228-3.08118-0.94482-3.29997-0.9598c-1.74967-0.11972,0.0822-4.41176,0.26995-4.72409
		c1.94012-3.22911,2.4576-4.6431,4.58911-6.7487c2.63739-2.60405,5.98474-3.99914,8.69772-3.83029
		c1.61044,0.098,3.21329,0.29535,4.79939,0.59091c0,0,3.15164-3.7242,7.01865-3.91424
		c3.1881-0.1567,6.99167,1.27658,6.34378,5.26398c-0.5183,3.192-2.60635,3.59557-2.60635,3.59557s3.92641,2.64819,5.57578,5.31271
		c1.72227,2.7833,3.17189,7.95293,3.1422,10.9503c-0.02563,2.58596,2.01921,2.40834,10.49017,6.86626
		C192.12697,55.32388,198.3614,85.4749,197.90384,99.27019z"/>
	<path id="Rounded_Rectangle_1_1_" class="st3" d="M92.83824,68.16504h5.27667c2.98176,0,5.39896,2.4172,5.39896,5.39896v5.28504
		c0,2.98176-2.4172,5.39896-5.39896,5.39896h-5.27667c-2.98176,0-5.39896-2.4172-5.39896-5.39896V73.564
		C87.43929,70.58224,89.85648,68.16504,92.83824,68.16504z"/>
	<path id="Rounded_Rectangle_1-2_1_" class="st4" d="M72.09451,212.63754h5.27666c2.98177,0,5.39896,2.41719,5.39896,5.39896
		v5.28423c0,2.98177-2.4172,5.39896-5.39896,5.39896h-5.27666c-2.98177,0-5.39896-2.41719-5.39896-5.39896v-5.28423
		C66.69554,215.05473,69.11274,212.63754,72.09451,212.63754z"/>
	<path id="Rounded_Rectangle_1-3_1_" class="st5" d="M104.2183,146.95921h5.27235c2.98176,0,5.39896,2.41719,5.39896,5.39896v5.2856
		c0,2.98177-2.4172,5.39896-5.39896,5.39896h-5.27235c-2.98176,0-5.39896-2.41719-5.39896-5.39896v-5.2856
		C98.81934,149.3764,101.23654,146.95921,104.2183,146.95921z"/>
	<path id="Rounded_Rectangle_1-4_1_" class="st1" d="M30.82622,206.49622h5.27235c2.98176,0,5.39896,2.41719,5.39896,5.39897
		v5.28423c0,2.98177-2.41719,5.39896-5.39896,5.39896h-5.27235c-2.98176,0-5.39896-2.41719-5.39896-5.39896v-5.28423
		C25.42726,208.91341,27.84446,206.49622,30.82622,206.49622z"/>
	<path id="Rounded_Rectangle_1-5_1_" class="st5" d="M29.9447,101.76022h5.27235c2.98176,0,5.39896,2.4172,5.39896,5.39896v5.28504
		c0,2.98176-2.41719,5.39896-5.39896,5.39896H29.9447c-2.98176,0-5.39896-2.4172-5.39896-5.39896v-5.28504
		C24.54575,104.17741,26.96294,101.76022,29.9447,101.76022z"/>
	<path id="Rounded_Rectangle_1-6_1_" class="st4" d="M18.63213,192.35365h5.27667c2.98176,0,5.39896,2.41719,5.39896,5.39896
		v5.28423c0,2.98177-2.4172,5.39896-5.39896,5.39896h-5.27667c-2.98176,0-5.39896-2.41719-5.39896-5.39896v-5.28423
		C13.23317,194.77084,15.65037,192.35365,18.63213,192.35365z"/>
	<path id="Rounded_Rectangle_1-7_1_" class="st4" d="M65.76341,187.55263h5.27235c2.98176,0,5.39896,2.41719,5.39896,5.39896v5.2856
		c0,2.98177-2.4172,5.39896-5.39896,5.39896h-5.27235c-2.98176,0-5.39896-2.41719-5.39896-5.39896v-5.2856
		C60.36446,189.96982,62.78165,187.55263,65.76341,187.55263z"/>
	<path id="Rounded_Rectangle_1-8_1_" class="st1" d="M28.95345,159.37682h5.27235c2.98177,0,5.39896,2.41719,5.39896,5.39896v5.2856
		c0,2.98177-2.41719,5.39896-5.39896,5.39896h-5.27235c-2.98176,0-5.39896-2.41719-5.39896-5.39896v-5.2856
		C23.5545,161.79401,25.97169,159.37682,28.95345,159.37682z"/>
	<path id="Rounded_Rectangle_1-9_1_" class="st1" d="M88.18164,132.91788h5.27249c2.98176,0,5.39896,2.41719,5.39896,5.39896
		v5.28558c0,2.98177-2.4172,5.39896-5.39896,5.39896h-5.27249c-2.98176,0-5.39896-2.41719-5.39896-5.39896v-5.28558
		C82.78268,135.33507,85.19988,132.91788,88.18164,132.91788z"/>
	<path id="Rounded_Rectangle_1-10_1_" class="st1" d="M18.21884,107.91409h5.27235c2.98176,0,5.39896,2.4172,5.39896,5.39896
		v5.28517c0,2.98176-2.4172,5.39896-5.39896,5.39896h-5.27235c-2.98176,0-5.39896-2.4172-5.39896-5.39896v-5.28517
		C12.81988,110.33128,15.23708,107.91409,18.21884,107.91409z"/>
	<path id="Rounded_Rectangle_1-11_1_" class="st1" d="M30.77142,119.79179h5.27235c2.98177,0,5.39896,2.4172,5.39896,5.39896
		v5.28543c0,2.98177-2.41719,5.39896-5.39896,5.39896h-5.27235c-2.98176,0-5.39896-2.41719-5.39896-5.39896v-5.28543
		C25.37246,122.20899,27.78966,119.79179,30.77142,119.79179z"/>
	<path id="Rounded_Rectangle_1-12_1_" class="st5" d="M80.18444,183.87863h5.27666c2.98176,0,5.39896,2.41719,5.39896,5.39896
		v5.28558c0,2.98177-2.41721,5.39896-5.39896,5.39896h-5.27666c-2.98177,0-5.39896-2.41719-5.39896-5.39896v-5.28558
		C74.78548,186.29582,77.20267,183.87863,80.18444,183.87863z"/>
	<path id="Rounded_Rectangle_1-13_1_" class="st5" d="M52.24483,188.87267h5.27667c2.98177,0,5.39896,2.41719,5.39896,5.39896
		v5.28558c0,2.98177-2.41719,5.39896-5.39896,5.39896h-5.27667c-2.98177,0-5.39896-2.41719-5.39896-5.39896v-5.28558
		C46.84587,191.28986,49.26307,188.87267,52.24483,188.87267z"/>
	<path id="Rounded_Rectangle_1-14_1_" class="st1" d="M58.53381,212.59433h5.27667c2.98176,0,5.39896,2.41719,5.39896,5.39897
		v5.28558c0,2.98177-2.4172,5.39896-5.39896,5.39896h-5.27667c-2.98177,0-5.39896-2.41719-5.39896-5.39896v-5.28558
		C53.13485,215.01152,55.55204,212.59433,58.53381,212.59433z"/>
	<path id="Rounded_Rectangle_1-15_1_" class="st1" d="M44.18445,210.65475h5.27235c2.98177,0,5.39896,2.41719,5.39896,5.39897
		v5.28558c0,2.98177-2.41719,5.39896-5.39896,5.39896h-5.27235c-2.98176,0-5.39896-2.41719-5.39896-5.39896v-5.28558
		C38.7855,213.07195,41.20269,210.65475,44.18445,210.65475z"/>
	<path id="Rounded_Rectangle_1-16_1_" class="st1" d="M94.2386,195.56737h5.27666c2.98177,0,5.39896,2.41719,5.39896,5.39896
		v5.28424c0,2.98177-2.4172,5.39896-5.39896,5.39896H94.2386c-2.98176,0-5.39896-2.41719-5.39896-5.39896v-5.28424
		C88.83964,197.98456,91.25684,195.56737,94.2386,195.56737z"/>
	<path id="Rounded_Rectangle_1-17_1_" class="st1" d="M26.39314,198.45178h5.27249c2.98176,0,5.39896,2.41719,5.39896,5.39896
		v5.28558c0,2.98177-2.41719,5.39896-5.39896,5.39896h-5.27249c-2.98176,0-5.39896-2.41719-5.39896-5.39896v-5.28558
		C20.99418,200.86897,23.41137,198.45178,26.39314,198.45178z"/>
	<path id="Rounded_Rectangle_1-18_1_" class="st1" d="M28.83954,177.26086h5.27249c2.98177,0,5.39896,2.41719,5.39896,5.39896
		v5.2856c0,2.98177-2.41719,5.39896-5.39896,5.39896h-5.27249c-2.98176,0-5.39896-2.41719-5.39896-5.39896v-5.2856
		C23.44058,179.67805,25.85777,177.26086,28.83954,177.26086z"/>
	<path id="Rounded_Rectangle_1-19_1_" class="st1" d="M72.58379,197.59198h5.27235c2.98176,0,5.39896,2.41719,5.39896,5.39896
		v5.28424c0,2.98177-2.4172,5.39896-5.39896,5.39896h-5.27235c-2.98177,0-5.39896-2.41719-5.39896-5.39896v-5.28424
		C67.18482,200.00917,69.60202,197.59198,72.58379,197.59198z"/>
	<path id="Rounded_Rectangle_1-20_1_" class="st5" d="M59.71483,202.61166h5.27667c2.98176,0,5.39896,2.41719,5.39896,5.39896
		v5.28424c0,2.98177-2.4172,5.39896-5.39896,5.39896h-5.27667c-2.98177,0-5.39896-2.41719-5.39896-5.39896v-5.28424
		C54.31587,205.02885,56.73306,202.61166,59.71483,202.61166z"/>
	<path id="Rounded_Rectangle_1-21_1_" class="st1" d="M40.19841,195.11118h5.27248c2.98177,0,5.39896,2.41719,5.39896,5.39896
		v5.28558c0,2.98177-2.41719,5.39896-5.39896,5.39896h-5.27248c-2.98177,0-5.39896-2.41719-5.39896-5.39896v-5.28558
		C34.79945,197.52837,37.21664,195.11118,40.19841,195.11118z"/>
	<path id="Rounded_Rectangle_1-22_1_" class="st3" d="M101.21095,134.12048h5.27235c2.98176,0,5.39896,2.41719,5.39896,5.39896
		v5.28423c0,2.98178-2.4172,5.39897-5.39896,5.39897h-5.27235c-2.98176,0-5.39896-2.41719-5.39896-5.39897v-5.28423
		C95.81199,136.53767,98.22919,134.12048,101.21095,134.12048z"/>
	<path id="Rounded_Rectangle_1-23_1_" class="st1" d="M15.72182,179.04117h5.27654c2.98176,0,5.39896,2.41719,5.39896,5.39896
		v5.28558c0,2.98177-2.4172,5.39896-5.39896,5.39896h-5.27654c-2.98176,0-5.39896-2.41719-5.39896-5.39896v-5.28558
		C10.32287,181.45836,12.74006,179.04117,15.72182,179.04117z"/>
	<path id="Rounded_Rectangle_1-24_1_" class="st5" d="M100.13116,182.36963h5.27235c2.98176,0,5.39896,2.41719,5.39896,5.39896
		v5.28424c0,2.98177-2.4172,5.39896-5.39896,5.39896h-5.27235c-2.98176,0-5.39896-2.41719-5.39896-5.39896v-5.28424
		C94.73219,184.78682,97.1494,182.36963,100.13116,182.36963z"/>
	<path id="Rounded_Rectangle_1-25_1_" class="st1" d="M13.92073,137.86197h5.27667c2.98176,0,5.39896,2.41719,5.39896,5.39896
		v5.28424c0,2.98177-2.4172,5.39896-5.39896,5.39896h-5.27667c-2.98176,0-5.39896-2.41719-5.39896-5.39896v-5.28424
		C8.52177,140.27916,10.93897,137.86197,13.92073,137.86197z"/>
	<path id="Rounded_Rectangle_1-26_1_" class="st4" d="M27.5531,130.84279h5.27667c2.98177,0,5.39896,2.41719,5.39896,5.39896
		v5.28477c0,2.98177-2.41719,5.39896-5.39896,5.39896H27.5531c-2.98176,0-5.39896-2.41719-5.39896-5.39896v-5.28477
		C22.15414,133.25998,24.57134,130.84279,27.5531,130.84279z"/>
	<path id="Rounded_Rectangle_1-27_1_" class="st5" d="M15.77244,119.84673h5.27235c2.98176,0,5.39896,2.4172,5.39896,5.39896v5.2845
		c0,2.98175-2.4172,5.39896-5.39896,5.39896h-5.27235c-2.98176,0-5.39896-2.41721-5.39896-5.39896v-5.2845
		C10.37348,122.26392,12.79068,119.84673,15.77244,119.84673z"/>
	<path id="Rounded_Rectangle_1-28_1_" class="st4" d="M33.5257,185.71832h5.27235c2.98177,0,5.39896,2.41719,5.39896,5.39896
		v5.28558c0,2.98177-2.41719,5.39896-5.39896,5.39896H33.5257c-2.98176,0-5.39896-2.41719-5.39896-5.39896v-5.28558
		C28.12674,188.13551,30.54393,185.71832,33.5257,185.71832z"/>
	<path id="Rounded_Rectangle_1-29_1_" class="st3" d="M11.4279,127.88186h5.27249c2.98176,0,5.39896,2.4172,5.39896,5.39895v5.28572
		c0,2.98177-2.4172,5.39896-5.39896,5.39896H11.4279c-2.98176,0-5.39896-2.41719-5.39896-5.39896v-5.28572
		C6.02894,130.29906,8.44614,127.88186,11.4279,127.88186z"/>
	<path id="Rounded_Rectangle_1-30_1_" class="st5" d="M19.04974,151.86552h5.27235c2.98176,0,5.39896,2.41719,5.39896,5.39896
		v5.28423c0,2.98177-2.4172,5.39896-5.39896,5.39896h-5.27235c-2.98176,0-5.39896-2.41719-5.39896-5.39896v-5.28423
		C13.65078,154.28271,16.06798,151.86552,19.04974,151.86552z"/>
	<path id="Rounded_Rectangle_1-31_1_" class="st3" d="M20.85502,166.83817h5.27235c2.98176,0,5.39896,2.41719,5.39896,5.39896
		v5.28964c0,2.98177-2.4172,5.39896-5.39896,5.39896h-5.27235c-2.98176,0-5.39896-2.41719-5.39896-5.39896v-5.28964
		C15.45606,169.25536,17.87326,166.83817,20.85502,166.83817z"/>
	<path id="Rounded_Rectangle_1-32_1_" class="st5" d="M20.29407,188.46774h5.27654c2.98176,0,5.39896,2.41719,5.39896,5.39896
		v5.28558c0,2.98177-2.4172,5.39896-5.39896,5.39896h-5.27654c-2.98176,0-5.39896-2.41719-5.39896-5.39896v-5.28558
		C14.89511,190.88493,17.31231,188.46774,20.29407,188.46774z"/>
	<path id="Rounded_Rectangle_1-33_1_" class="st4" d="M14.39732,99.04386h5.27249c2.98176,0,5.39896,2.4172,5.39896,5.39896v5.28504
		c0,2.98176-2.4172,5.39896-5.39896,5.39896h-5.27249c-2.98176,0-5.39896-2.4172-5.39896-5.39896v-5.28504
		C8.99837,101.46106,11.41556,99.04386,14.39732,99.04386z"/>
	<path id="Rounded_Rectangle_1-34_1_" class="st5" d="M89.05898,145.89291h5.27667c2.98176,0,5.39896,2.41719,5.39896,5.39897
		v5.28423c0,2.98177-2.4172,5.39896-5.39896,5.39896h-5.27667c-2.98176,0-5.39896-2.41719-5.39896-5.39896v-5.28423
		C83.66002,148.3101,86.07722,145.89291,89.05898,145.89291z"/>
	<path id="Rounded_Rectangle_1-35_1_" class="st5" d="M105.12087,112.55381h5.27667c2.98176,0,5.39896,2.4172,5.39896,5.39896
		v5.28517c0,2.98176-2.4172,5.39896-5.39896,5.39896h-5.27667c-2.98176,0-5.39896-2.4172-5.39896-5.39896v-5.28517
		C99.72192,114.97101,102.13911,112.55381,105.12087,112.55381z"/>
	<path id="Rounded_Rectangle_1-36_1_" class="st1" d="M90.12621,182.92572h5.27235c2.98176,0,5.39896,2.41719,5.39896,5.39896
		v5.28558c0,2.98177-2.4172,5.39896-5.39896,5.39896h-5.27235c-2.98176,0-5.39896-2.41719-5.39896-5.39896v-5.28558
		C84.72725,185.34291,87.14445,182.92572,90.12621,182.92572z"/>
	<path id="Rounded_Rectangle_1-37_1_" class="st1" d="M98.71812,171.00211h5.27235c2.98177,0,5.39896,2.41719,5.39896,5.39897
		v5.28423c0,2.98177-2.4172,5.39896-5.39896,5.39896h-5.27235c-2.98177,0-5.39896-2.41719-5.39896-5.39896v-5.28423
		C93.31915,173.4193,95.73635,171.00211,98.71812,171.00211z"/>
	<path id="Rounded_Rectangle_1-38_1_" class="st1" d="M103.06684,103.84799h5.27235c2.98176,0,5.39896,2.4172,5.39896,5.39896
		v5.28517c0,2.98177-2.4172,5.39896-5.39896,5.39896h-5.27235c-2.98177,0-5.39896-2.4172-5.39896-5.39896v-5.28517
		C97.66788,106.26519,100.08508,103.84799,103.06684,103.84799z"/>
	<path id="Rounded_Rectangle_1-39_1_" class="st4" d="M85.13217,168.92218h5.27235c2.98177,0,5.39896,2.41719,5.39896,5.39896
		v5.28558c0,2.98177-2.4172,5.39896-5.39896,5.39896h-5.27235c-2.98176,0-5.39896-2.41719-5.39896-5.39896v-5.28558
		C79.73322,171.33937,82.15041,168.92218,85.13217,168.92218z"/>
	<path id="Rounded_Rectangle_1-40_1_" class="st1" d="M100.9325,154.91862h5.27667c2.98176,0,5.39896,2.41719,5.39896,5.39896
		v5.28558c0,2.98178-2.4172,5.39896-5.39896,5.39896h-5.27667c-2.98176,0-5.39896-2.41718-5.39896-5.39896v-5.28558
		C95.53354,157.33582,97.95074,154.91862,100.9325,154.91862z"/>
	<path id="Rounded_Rectangle_1-41_1_" class="st4" d="M92.813,115.92816h5.27235c2.98176,0,5.39896,2.4172,5.39896,5.39896v5.28477
		c0,2.98176-2.4172,5.39896-5.39896,5.39896H92.813c-2.98176,0-5.39896-2.41721-5.39896-5.39896v-5.28477
		C87.41405,118.34536,89.83125,115.92816,92.813,115.92816z"/>
	<path id="Rounded_Rectangle_1-42_1_" class="st1" d="M26.25397,142.15953h5.27235c2.98176,0,5.39896,2.41719,5.39896,5.39897
		v5.28558c0,2.98177-2.41719,5.39896-5.39896,5.39896h-5.27235c-2.98176,0-5.39896-2.41719-5.39896-5.39896v-5.28558
		C20.85502,144.57672,23.27221,142.15953,26.25397,142.15953z"/>
	<path id="Rounded_Rectangle_1-43_1_" class="st1" d="M12.81138,162.95767h5.27667c2.98176,0,5.39896,2.41719,5.39896,5.39896
		v5.28558c0,2.98177-2.4172,5.39896-5.39896,5.39896h-5.27667c-2.98176,0-5.39896-2.41719-5.39896-5.39896v-5.28558
		C7.41242,165.37486,9.82962,162.95767,12.81138,162.95767z"/>
	<path id="Rounded_Rectangle_1-44_1_" class="st3" d="M84.45731,197.54071h5.27235c2.98176,0,5.39896,2.41719,5.39896,5.39896
		v5.28558c0,2.98177-2.4172,5.39896-5.39896,5.39896h-5.27235c-2.98176,0-5.39896-2.41719-5.39896-5.39896v-5.28558
		C79.05835,199.9579,81.47555,197.54071,84.45731,197.54071z"/>
	<path id="Rounded_Rectangle_1-45_1_" class="st1" d="M84.0312,207.01047h5.27248c2.98176,0,5.39896,2.41719,5.39896,5.39896
		v5.28558c0,2.98177-2.4172,5.39896-5.39896,5.39896H84.0312c-2.98176,0-5.39896-2.41719-5.39896-5.39896v-5.28558
		C78.63224,209.42766,81.04944,207.01047,84.0312,207.01047z"/>
	<path id="Rounded_Rectangle_1-46_1_" class="st3" d="M38.74744,205.01151h5.27248c2.98177,0,5.39896,2.41719,5.39896,5.39896
		v5.28424c0,2.98177-2.41719,5.39896-5.39896,5.39896h-5.27248c-2.98177,0-5.39896-2.41719-5.39896-5.39896v-5.28424
		C33.34848,207.4287,35.76567,205.01151,38.74744,205.01151z"/>
	<path id="Rounded_Rectangle_1-47_1_" class="st1" d="M48.68071,198.99167h5.27249c2.98176,0,5.39896,2.41719,5.39896,5.39897
		v5.28558c0,2.98177-2.41719,5.39896-5.39896,5.39896h-5.27249c-2.98176,0-5.39896-2.41719-5.39896-5.39896v-5.28558
		C43.28175,201.40886,45.69894,198.99167,48.68071,198.99167z"/>
</g>
</svg>
