<svg id="U" xmlns="http://www.w3.org/2000/svg" width="5906" height="2906" viewBox="0 0 5906 2906">
  <metadata><?xpacket begin="﻿" id="W5M0MpCehiHzreSzNTczkc9d"?>
<x:xmpmeta xmlns:x="adobe:ns:meta/" x:xmptk="Adobe XMP Core 5.6-c142 79.160924, 2017/07/13-01:06:39        ">
   <rdf:RDF xmlns:rdf="http://www.w3.org/1999/02/22-rdf-syntax-ns#">
      <rdf:Description rdf:about=""/>
   </rdf:RDF>
</x:xmpmeta>
                                                                                                    
                                                                                                    
                                                                                                    
                                                                                                    
                                                                                                    
                                                                                                    
                                                                                                    
                                                                                                    
                                                                                                    
                                                                                                    
                                                                                                    
                                                                                                    
                                                                                                    
                                                                                                    
                                                                                                    
                                                                                                    
                                                                                                    
                                                                                                    
                                                                                                    
                                                                                                    
                           
<?xpacket end="w"?></metadata>
<defs>
    <style>
      .cls-1, .cls-2 {
        fill: #3c3c3c;
      }

      .cls-1, .cls-3, .cls-5 {
        fill-rule: evenodd;
      }

      .cls-3, .cls-4 {
        fill: #959595;
      }

      .cls-5 {
        fill: #ff5144;
      }
    </style>
  </defs>
  <path id="t" class="cls-1" d="M4936.95,1984.1q31.875,31.875,71.26,45c2.12,0.74,22.67,9.88,22.67,9.88a39.993,39.993,0,0,1,21.83,52.18l-16.69,40.72a39.993,39.993,0,0,1-52.18,21.83l-40.72-16.69c47.58,19.5-37.79-9.54-93.66-65.42-60-60-92.5-141.25-91.25-230V1649.4h-0.28L4675,1649a40,40,0,0,1-40-40v-44a40,40,0,0,1,40-40l82.93,0.65V1306.56a40.234,40.234,0,0,1-.93-8.56v-44a40,40,0,0,1,40-40h44a40,40,0,0,1,40,40v11.56a64.577,64.577,0,0,1,.96,11.04v249.05L5009,1526a40,40,0,0,1,40,40v44a40,40,0,0,1-40,40h-44c33.17,0-83.04-.6-83.04-0.6v192.2C4881.96,1897.85,4899.46,1946.6,4936.95,1984.1Z"/>
  <path id="f" class="cls-1" d="M4545.88,1327.02s-17.2,8.27-21.85,9.88q-39.375,13.125-71.25,45c-37.5,37.5-55,86.25-55,142.5L4526,1524a40,40,0,0,1,40,40v44a40,40,0,0,1-40,40l-128.22.15s0.22,624.66.22,419.85v44a40,40,0,0,1-40,40h-44a40,40,0,0,1-40-40l0.03-463.85L4191,1648a40,40,0,0,1-40-40v-44a40,40,0,0,1,40-40l83.03,0.4c-1.25-88.75,31.25-170,91.25-230,24.88-24.89,52.49-44.99,83.31-59.86a40.165,40.165,0,0,1,9.53-5.56l40.72-16.69a39.993,39.993,0,0,1,52.18,21.83l16.69,40.72A39.993,39.993,0,0,1,4545.88,1327.02Z"/>
  <path id="a" class="cls-1" d="M4080.05,2111.03A40.07,40.07,0,0,1,4040,2151h-44a40,40,0,0,1-40-40v-21.25c-53.25,43.8-112.65,60.9-183.04,60.9-176.25,0-316.25-131.25-316.25-307.5s140-316.25,316.25-316.25c70.35,0,133.51,22.32,184.04,60.33V1565a40,40,0,0,1,40-40h44a40,40,0,0,1,40,40C4081.96,1565.54,4085.12,2113.86,4080.05,2111.03ZM3772.96,1649.4c-105,0-193.75,88.75-193.75,193.75s88.75,185,193.75,185c99.13,0,175.97-71.32,184.24-167.66v-34.77C3948.93,1728.51,3872.09,1649.4,3772.96,1649.4Z"/>
  <path id="r" class="cls-1" d="M3467,1610a40,40,0,0,1-40,40h-37.45c-2.16.17-8.32,0.83-10.79,1.17,0.47-.07-11.01,1.82-11.75,1.97-1.37.28-5.67,1.21-8.96,2.04-1.23.31-4.86,1.27-7.54,2.07-0.67.2-7.01,2.22-8.5,2.75-0.49.17-7.51,2.79-8.39,3.15-0.39.16-7.53,3.22-8.22,3.54-0.38.18-7.34,3.57-8.03,3.92-0.91.48-6.23,3.37-7.82,4.29-6.43,3.73-9.87,6.11-7.67,4.69q-7.065,4.545-13.67,9.7l-0.48.36c-0.59.46-4.39,3.55-5.75,4.69-0.53.46-5.54,4.88-6.46,5.73-1.49,1.39-8.07,7.93-9.35,9.29-1.22,1.31-9.86,11.35-11.5,13.45,0.79-1.01-3.07,3.99-5.29,7.14,0.15-.22-2.63,3.83-3,4.39-0.04.05-5.82,9.33-5.43,8.66,0.19-.3-2.48,4.31-3.34,5.89-2.62,4.84-8.2,17.07-7.21,14.84,0.42-.99-1.54,3.58-2.29,5.48-0.17.43-2.92,7.63-4.57,12.86,0.18-.6-1.46,4.81-1.91,6.46-0.02.05-1.27,4.83-1.46,5.62,0.26-1.07-.8,3.31-1.3,5.7-2.52,11.9-4.01,30.06-3.43,23.25-0.24,2.81-.64,10.46-0.47,6.84-0.07,1.58-.17,4.69-0.17,4.67-0.04,1.59-.06,3.18-0.06,4.79L3215,2113a40,40,0,0,1-40,40h-44a40,40,0,0,1-40-40l-0.01-273.6c0-2.64.03-5.26,0.1-7.88h0c0.09-3.66.26-7.3,0.48-10.93h0c-0.16,2.69.63-11.33,2.27-23.5h0c2.68-19.87,6.7-36.23,4.79-26.72,1.08-4.82,4.73-18.45,5.64-21.45,1.15-3.82,3.7-11.52,3.9-12.09,0.34-.95,1.65-4.71,3.17-8.71,0.11-.29,1.57-4.23,3.93-9.86,0.87-2.09,5.69-13.13,6.51-14.49,1.54-3.2,9.01-17.3,9.38-17.95q4.92-8.76,10.39-17.16h0c0.65-1,3.1-4.73,5.79-8.58,1.08-1.53,4.03-5.64,4.77-6.63h0c-0.71.95,5.81-7.7,8.21-10.65,1.83-2.27,4.42-5.36,5.54-6.68h0q9.285-10.89,19.51-20.89h0c2.54-2.49,12.05-11.36,18.94-17.09a0.9,0.9,0,0,1,.1-0.09h0c8.12-6.75,16.28-12.65,17.31-13.39h0q7.47-5.385,15.27-10.33h0c8.58-5.45,21.63-12.65,28.71-16.16h0.01q3.51-1.74,7.06-3.4h0c3.76-1.74,14.79-6.64,9.49-4.23,0.92-.4,10.79-4.34,11.76-4.71,2.43-.92,8.26-3.04,13.18-4.65,0.5-.16,12.17-3.76,17.21-5.1h0c3.5-.92,5.01-1.28,4.47-1.14,2.25-.56,4.5-1.1,6.77-1.62h0c2.88-.64,11.05-2.3,14.81-2.96h0c1.68-.3,14.79-2.24,16.61-2.44,2-.25,8.82-1.92,15.93-1.92h7.07q7.29-.345,14.67-0.35a65.5,65.5,0,0,1,6.76.35H3427a40,40,0,0,1,40,40v44Z"/>
  <path id="k" class="cls-1" d="M3020,2089.94V2112a40,40,0,0,1-40,40h-44a40,40,0,0,1-40-40v-29.95h0a188.76,188.76,0,0,0-31.1-96.87,0.02,0.02,0,0,1-.01-0.02,189.076,189.076,0,0,0-13.91-18.51,0.01,0.01,0,0,0-.01-0.01c0.99,1.16-.8-0.98-2.74-3.16,1.95,2.2-1.64-1.96-5.82-6.25l-0.11-.11a190.918,190.918,0,0,0-40-31.35c1.2,0.71-1.23-.74-3.68-2.1,0.16,0.09-14.64-7.39-11.58-5.95-0.01,0-.02-0.01-0.03-0.01s-0.05-.02-0.07-0.03a189.311,189.311,0,0,0-22.01-8.71c-0.02-.01-0.05-0.01-0.07-0.02-16.06-5.21-32.21-7.62-23.49-5.99-2.11-.39-7.97-1.32-8.9-1.45-7.66-1.06-11.68-1.26-13.23-1.37h0L2719,2113a40,40,0,0,1-40,40h-44a40,40,0,0,1-40-40V1255a40,40,0,0,1,40-40h44a40,40,0,0,1,40,40l0.24,332.67c6.76-5.09,11.64-8.38,14.95-10.59,0.01,0,.01-0.01.02-0.01-1.12.75,14-9.37,29.56-17.42,0-.01,0-0.01.01-0.01h0c8.71-4.51,11.68-5.86,9.43-4.69q6.99-3.33,14.17-6.32h0a2.683,2.683,0,0,0,.46-0.19q4.74-1.965,9.56-3.78h0c0.09-.03.17-0.06,0.26-0.09h0q7.245-2.73,14.66-5.1h0c0.08-.02.15-0.05,0.23-0.07q5.085-1.62,10.22-3.07h0c-0.86.24,0.66-.21,4.86-1.32h0c-6.1,1.61,7.7-2.07,11.32-2.77,3.39-.76,27.43-4.88,26.01-4.68h0a2.886,2.886,0,0,1,.29-0.04c4.28-.59,17.64-2.52,20.75-2.52h6.86c8.18-.38,22.43.08,21.63,0H2930a40,40,0,0,1,40,40v44a40,40,0,0,1-40,40h-37.46a1.366,1.366,0,0,0-.19.02c-1.57.12-5.41,0.51-5.76,0.55,0.25-.03-12.1,1.73-11.87,1.69,0.7-.13-5.3,1-7.31,1.43-0.98.22-11.26,2.78-8.76,2.11,0.96-.26-11.98,3.61-11.2,3.35,0.72-.24-4.97,1.72-7.51,2.69,1.9-.73-9.41,3.88-9.2,3.79-1.05.47-6.21,2.89-7.26,3.41,0.77-.38-8.14,4.28-8.64,4.56-2.23,1.25-5.82,3.39-6.9,4.06-0.17.11-8.97,5.83-12.74,8.6-3.25,2.39-9.57,7.5-7.64,5.93-2.68,2.18-7.1,6.09-5.97,5.09-1.05.93-5.2,4.78-5.96,5.52,1.61-1.55-3.68,3.58-6.82,6.94-1.62,1.74-5.55,6.18-3.69,4.07-3.01,3.42-7.67,9.23-5.54,6.59,0.71-.89-2.07,2.6-3.09,3.94-0.7.92-3.44,4.63-4.84,6.65,0.46-.67-2.2,3.21-3.03,4.5,0.69-1.06-4.04,6.41-5.13,8.29-0.59,1-3.26,5.82-3.91,7.05a0.594,0.594,0,0,0-.04.08c1.08-2.06-6.24,12.95-7.59,16.23,0.18-.45-3.74,9.83-4.01,10.64h0q10.2,0.705,20.21,2.04c0.04,0,.08.01,0.12,0.01h0c2.32,0.32,4.64.65,6.94,1.02h0c0.03,0,.06.01,0.09,0.01a311.556,311.556,0,0,1,67.82,18.72h0c0.06,0.02.12,0.04,0.17,0.06,2.12,0.86,4.23,1.73,6.32,2.63h0c0.01,0,.03.01,0.04,0.01q12.765,5.475,24.92,12.03l0.12,0.06h0c1.98,1.07,3.95,2.15,5.91,3.26h0c0.06,0.03.11,0.07,0.17,0.1h0q11.955,6.8,23.25,14.57h0c1.86,1.29,3.71,2.59,5.55,3.92,0.04,0.03.09,0.06,0.14,0.1h0c1.82,1.31,3.62,2.65,5.41,4a0.55,0.55,0,0,1,.09.07h0q10.92,8.25,21.08,17.41a0.151,0.151,0,0,0,.04.04h0q2.49,2.25,4.94,4.56h0l0.12,0.12h0a315.048,315.048,0,0,1,44.33,51.93h0l0.03,0.03h0c1.27,1.87,2.53,3.76,3.76,5.66h0c0.02,0.03.05,0.06,0.07,0.09h0a316.008,316.008,0,0,1,17.1,29.77l0.03,0.06h0c2.93,5.82,3.84,7.88,4.83,10.05-4.71-10.25,4.32,7.94,11.34,28.21h0a0.142,0.142,0,0,0,.02.06h0a312.443,312.443,0,0,1,9.56,33.7,0.109,0.109,0,0,1,.01.05h0a354.167,354.167,0,0,1,5.78,35.13A40.278,40.278,0,0,1,3020,2068s0.01,30.52.01,21.55C3020.01,2089.68,3020,2089.81,3020,2089.94Zm-300.88-189.8a0.22,0.22,0,0,0-.08-0.01L2719,1933Z"/>
  <path id="i" class="cls-1" d="M2484,2153h-44a40,40,0,0,1-40-40l-0.52-504.07a1.846,1.846,0,0,0-.48.07v-44a40,40,0,0,1,40-40h44a40,40,0,0,1,40,40l0.23,496.52a35.179,35.179,0,0,1,.77,7.48v44A40,40,0,0,1,2484,2153Zm-1-752h-44a40,40,0,0,1-40-40v-44a40,40,0,0,1,40-40h44a40,40,0,0,1,40,40v44A40,40,0,0,1,2483,1401Z"/>
  <path id="n" class="cls-1" d="M2328,2112a40,40,0,0,1-40,40h-44a40,40,0,0,1-40-40v-44h0.5V1838.15a190,190,0,0,0-380,0V2068h0.5v44a40,40,0,0,1-40,40h-44a40,40,0,0,1-40-40l-0.25-273.85c0-173.75,141.25-313.75,313.75-313.75s313.75,140,313.75,313.75Z"/>
  <rect id="Rounded_Rectangle_1" data-name="Rounded Rectangle 1" class="cls-2" x="1313.47" y="2028.16" width="119.09" height="119.15" rx="40" ry="40"/>
  <path id="Rounded_Rectangle_1-2" data-name="Rounded Rectangle 1" class="cls-3" d="M1591.45,1541.57h39.08a40,40,0,0,1,40,40v39.16a40,40,0,0,1-40,40h-39.08a40,40,0,0,1-40-40v-39.16A40,40,0,0,1,1591.45,1541.57Z"/>
  <path id="Rounded_Rectangle_1-3" data-name="Rounded Rectangle 1" class="cls-1" d="M1047.71,1982.64h39.08a40,40,0,0,1,40,40v39.16a40,40,0,0,1-40,40h-39.08a40,40,0,0,1-40-40v-39.16A40,40,0,0,1,1047.71,1982.64Z"/>
  <rect id="Rounded_Rectangle_1-4" data-name="Rounded Rectangle 1" class="cls-4" x="1001.19" y="1206.69" width="119.06" height="119.15" rx="40" ry="40"/>
  <path id="Rounded_Rectangle_1-5" data-name="Rounded Rectangle 1" class="cls-1" d="M957.379,1877.87h39.075a39.995,39.995,0,0,1,40,40v39.16a39.995,39.995,0,0,1-40,40H957.379a40,40,0,0,1-40-40v-39.16A40,40,0,0,1,957.379,1877.87Z"/>
  <path id="Rounded_Rectangle_1-6" data-name="Rounded Rectangle 1" class="cls-1" d="M1306.55,1842.3h39.08a40,40,0,0,1,40,40v39.16a40,40,0,0,1-40,40h-39.08a40,40,0,0,1-40-40V1882.3A40,40,0,0,1,1306.55,1842.3Z"/>
  <path id="Rounded_Rectangle_1-7" data-name="Rounded Rectangle 1" class="cls-1" d="M1033.84,1633.55h39.07a40,40,0,0,1,40,40v39.16a40,40,0,0,1-40,40h-39.07a40,40,0,0,1-40-40v-39.16A40,40,0,0,1,1033.84,1633.55Z"/>
  <path id="Rounded_Rectangle_1-8" data-name="Rounded Rectangle 1" class="cls-1" d="M1472.64,1437.54h39.08a40,40,0,0,1,40,40v39.16a40,40,0,0,1-40,40h-39.08a40,40,0,0,1-40-40v-39.16A40,40,0,0,1,1472.64,1437.54Z"/>
  <path id="Rounded_Rectangle_1-9" data-name="Rounded Rectangle 1" class="cls-1" d="M954.3,1252.29h39.076a39.994,39.994,0,0,1,39.995,40v39.16a39.994,39.994,0,0,1-39.995,40H954.3a40,40,0,0,1-40-40v-39.16A40,40,0,0,1,954.3,1252.29Z"/>
  <path id="Rounded_Rectangle_1-10" data-name="Rounded Rectangle 1" class="cls-1" d="M1047.31,1340.28h39.06a40,40,0,0,1,40,40v39.16a40,40,0,0,1-40,40h-39.06a40,40,0,0,1-40-40v-39.16A40,40,0,0,1,1047.31,1340.28Z"/>
  <path id="Rounded_Rectangle_1-11" data-name="Rounded Rectangle 1" class="cls-3" d="M1413.42,1815.11h39.07a40,40,0,0,1,40,40v39.15a40,40,0,0,1-40,40h-39.07a40,40,0,0,1-40-40v-39.15A40,40,0,0,1,1413.42,1815.11Z"/>
  <rect id="Rounded_Rectangle_1-12" data-name="Rounded Rectangle 1" class="cls-4" x="1166.41" y="1852.09" width="119.09" height="119.16" rx="40" ry="40"/>
  <path id="Rounded_Rectangle_1-13" data-name="Rounded Rectangle 1" class="cls-1" d="M1253.02,2027.84h39.07a40,40,0,0,1,40,40V2107a40,40,0,0,1-40,40h-39.07a40,40,0,0,1-40.01-40v-39.16A40,40,0,0,1,1253.02,2027.84Z"/>
  <path id="Rounded_Rectangle_1-14" data-name="Rounded Rectangle 1" class="cls-1" d="M1146.68,2013.46h39.08a40,40,0,0,1,40,40v39.16a40,40,0,0,1-40,40h-39.08a40,40,0,0,1-40-40v-39.16A40,40,0,0,1,1146.68,2013.46Z"/>
  <path id="Rounded_Rectangle_1-15" data-name="Rounded Rectangle 1" class="cls-1" d="M1517.54,1901.68h39.07a40,40,0,0,1,40,40v39.16a40,40,0,0,1-40,40h-39.07a40,40,0,0,1-40-40v-39.16A40,40,0,0,1,1517.54,1901.68Z"/>
  <path id="Rounded_Rectangle_1-16" data-name="Rounded Rectangle 1" class="cls-1" d="M1014.86,1923.07h39.08a40,40,0,0,1,40,40v39.15a40,40,0,0,1-40,40h-39.08a40,40,0,0,1-40-40v-39.15A39.993,39.993,0,0,1,1014.86,1923.07Z"/>
  <rect id="Rounded_Rectangle_1-17" data-name="Rounded Rectangle 1" class="cls-2" x="993" y="1766.06" width="119.06" height="119.16" rx="40" ry="40"/>
  <path id="Rounded_Rectangle_1-18" data-name="Rounded Rectangle 1" class="cls-1" d="M1357.09,1916.68h39.08a40,40,0,0,1,40,40v39.16a40,40,0,0,1-40,40h-39.08a40,40,0,0,1-40-40v-39.16A40,40,0,0,1,1357.09,1916.68Z"/>
  <path id="Rounded_Rectangle_1-19" data-name="Rounded Rectangle 1" class="cls-3" d="M1261.76,1953.88h39.07a40,40,0,0,1,40,40v39.16a40,40,0,0,1-40,40h-39.07a40,40,0,0,1-40-40v-39.16A40,40,0,0,1,1261.76,1953.88Z"/>
  <path id="Rounded_Rectangle_1-20" data-name="Rounded Rectangle 1" class="cls-1" d="M1117.14,1898.3h39.08a40,40,0,0,1,40,40v39.16a40,40,0,0,1-40,40h-39.08a40,40,0,0,1-40-40V1938.3A40,40,0,0,1,1117.14,1898.3Z"/>
  <path id="Rounded_Rectangle_1-21" data-name="Rounded Rectangle 1" class="cls-5" d="M1569.18,1446.43h39.08a40,40,0,0,1,40,40v39.16a40,40,0,0,1-40,40h-39.08a40,40,0,0,1-40-40v-39.16A40,40,0,0,1,1569.18,1446.43Z"/>
  <path id="Rounded_Rectangle_1-22" data-name="Rounded Rectangle 1" class="cls-1" d="M935.822,1779.25H974.9a40,40,0,0,1,40,40v39.16a40,40,0,0,1-40,40H935.822a40,40,0,0,1-40-40v-39.16A40,40,0,0,1,935.822,1779.25Z"/>
  <path id="Rounded_Rectangle_1-23" data-name="Rounded Rectangle 1" class="cls-3" d="M1561.18,1803.91h39.08a40,40,0,0,1,40,40v39.16a40,40,0,0,1-40,40h-39.08a40,40,0,0,1-40-40v-39.16A40,40,0,0,1,1561.18,1803.91Z"/>
  <path id="Rounded_Rectangle_1-24" data-name="Rounded Rectangle 1" class="cls-1" d="M922.477,1474.17h39.076a40,40,0,0,1,40,40v39.16a40,40,0,0,1-40,40H922.477a40,40,0,0,1-40-40v-39.16A40,40,0,0,1,922.477,1474.17Z"/>
  <rect id="Rounded_Rectangle_1-25" data-name="Rounded Rectangle 1" class="cls-2" x="983.469" y="1422.16" width="119.091" height="119.15" rx="40" ry="40"/>
  <path id="Rounded_Rectangle_1-26" data-name="Rounded Rectangle 1" class="cls-3" d="M936.174,1340.68H975.25a40,40,0,0,1,40,40v39.16a40,40,0,0,1-40,40H936.174a40,40,0,0,1-40-40v-39.16A40,40,0,0,1,936.174,1340.68Z"/>
  <path id="Rounded_Rectangle_1-27" data-name="Rounded Rectangle 1" class="cls-1" d="M1067.71,1828.72h39.08a40,40,0,0,1,40,40v39.16a40,40,0,0,1-40,40h-39.08a40,40,0,0,1-40-40v-39.16A40,40,0,0,1,1067.71,1828.72Z"/>
  <path id="Rounded_Rectangle_1-28" data-name="Rounded Rectangle 1" class="cls-5" d="M904,1400.21h39.075a40,40,0,0,1,40,40v39.16a40,40,0,0,1-40,40H904a40,40,0,0,1-40-40v-39.16A40,40,0,0,1,904,1400.21Z"/>
  <path id="Rounded_Rectangle_1-29" data-name="Rounded Rectangle 1" class="cls-3" d="M960.458,1577.92h39.076a39.995,39.995,0,0,1,40,40v39.16a39.995,39.995,0,0,1-40,40H960.458a40,40,0,0,1-40-40v-39.16A40,40,0,0,1,960.458,1577.92Z"/>
  <path id="Rounded_Rectangle_1-30" data-name="Rounded Rectangle 1" class="cls-5" d="M973.837,1688.86h39.073a40,40,0,0,1,40,40v39.16a40,40,0,0,1-40,40H973.837a40,40,0,0,1-40-40v-39.16A40,40,0,0,1,973.837,1688.86Z"/>
  <path id="Rounded_Rectangle_1-31" data-name="Rounded Rectangle 1" class="cls-3" d="M969.7,1849.11h39.073a40,40,0,0,1,40,40v39.15a40,40,0,0,1-40,40H969.7a40,40,0,0,1-40-40v-39.15A39.994,39.994,0,0,1,969.7,1849.11Z"/>
  <path id="Rounded_Rectangle_1-32" data-name="Rounded Rectangle 1" class="cls-1" d="M926,1186.55h39.076a40,40,0,0,1,40,40v39.16a40,40,0,0,1-40,40H926a40,40,0,0,1-40-40v-39.16A40,40,0,0,1,926,1186.55Z"/>
  <path id="Rounded_Rectangle_1-33" data-name="Rounded Rectangle 1" class="cls-3" d="M1479.17,1533.67h39.07a40,40,0,0,1,40,40v39.15a40,40,0,0,1-40,40h-39.07a40,40,0,0,1-40-40v-39.15A40,40,0,0,1,1479.17,1533.67Z"/>
  <rect id="Rounded_Rectangle_1-34" data-name="Rounded Rectangle 1" class="cls-4" x="1558.16" y="1286.66" width="119.09" height="119.15" rx="40" ry="40"/>
  <path id="Rounded_Rectangle_1-35" data-name="Rounded Rectangle 1" class="cls-1" d="M1487.06,1808.02h39.08a40,40,0,0,1,40,40v39.15a40,40,0,0,1-40,40h-39.08a40,40,0,0,1-40-40v-39.15A40,40,0,0,1,1487.06,1808.02Z"/>
  <path id="Rounded_Rectangle_1-36" data-name="Rounded Rectangle 1" class="cls-1" d="M1550.7,1719.68h39.08a40,40,0,0,1,40,40v39.15a40,40,0,0,1-40,40H1550.7a40,40,0,0,1-40-40v-39.15A40,40,0,0,1,1550.7,1719.68Z"/>
  <path id="Rounded_Rectangle_1-37" data-name="Rounded Rectangle 1" class="cls-1" d="M1582.92,1222.15H1622a40,40,0,0,1,40,40v39.16a40,40,0,0,1-40,40h-39.08a40,40,0,0,1-40-40v-39.16A40,40,0,0,1,1582.92,1222.15Z"/>
  <path id="Rounded_Rectangle_1-38" data-name="Rounded Rectangle 1" class="cls-1" d="M1450.06,1704.29h39.08a40,40,0,0,1,40,40v39.16a40,40,0,0,1-40,40h-39.08a40,40,0,0,1-40-40v-39.16A40,40,0,0,1,1450.06,1704.29Z"/>
  <path id="Rounded_Rectangle_1-39" data-name="Rounded Rectangle 1" class="cls-1" d="M1567.13,1600.52h39.07a40,40,0,0,1,40,40v39.16a40,40,0,0,1-40,40h-39.07a40,40,0,0,1-40-40v-39.16A40,40,0,0,1,1567.13,1600.52Z"/>
  <path id="Rounded_Rectangle_1-40" data-name="Rounded Rectangle 1" class="cls-1" d="M1506.95,1311.66h39.08a40,40,0,0,1,40,40v39.16a40,40,0,0,1-40,40h-39.08a40,40,0,0,1-40-40v-39.16A40,40,0,0,1,1506.95,1311.66Z"/>
  <path id="Rounded_Rectangle_1-41" data-name="Rounded Rectangle 1" class="cls-1" d="M1013.84,1506.01h39.07a40,40,0,0,1,40,40v39.16a40,40,0,0,1-40,40h-39.07a40,40,0,0,1-40-40v-39.16A40,40,0,0,1,1013.84,1506.01Z"/>
  <path id="Rounded_Rectangle_1-42" data-name="Rounded Rectangle 1" class="cls-1" d="M914.265,1660.1h39.076a40,40,0,0,1,40,40v39.15a39.995,39.995,0,0,1-40,40H914.265a39.995,39.995,0,0,1-40-40V1700.1A40,40,0,0,1,914.265,1660.1Z"/>
  <path id="Rounded_Rectangle_1-43" data-name="Rounded Rectangle 1" class="cls-5" d="M1445.05,1916.3h39.08a40,40,0,0,1,40,40v39.16a40,40,0,0,1-40,40h-39.08a40,40,0,0,1-40-40V1956.3A40,40,0,0,1,1445.05,1916.3Z"/>
  <path id="Rounded_Rectangle_1-44" data-name="Rounded Rectangle 1" class="cls-1" d="M1441.89,1986.48h39.08a40,40,0,0,1,40,40v39.16a40,40,0,0,1-40,40h-39.08a40,40,0,0,1-40-40v-39.16A40,40,0,0,1,1441.89,1986.48Z"/>
  <path id="Rounded_Rectangle_1-45" data-name="Rounded Rectangle 1" class="cls-5" d="M1106.4,1971.64h39.08a40,40,0,0,1,40,40v39.16a40,40,0,0,1-40,40H1106.4a40,40,0,0,1-40-40v-39.16A40,40,0,0,1,1106.4,1971.64Z"/>
  <path id="Rounded_Rectangle_1-46" data-name="Rounded Rectangle 1" class="cls-1" d="M1180,1927.07h39.08a40,40,0,0,1,40,40v39.15a40,40,0,0,1-40,40H1180a40,40,0,0,1-40-40v-39.15A40,40,0,0,1,1180,1927.07Z"/>
  <path id="monkey" class="cls-3" d="M2285.57,1193.45s21.27-33.89,17.43-92.45-8.54-110.1-55-185c-42.38-68.308-63.73-77.963-73-155s21.51-154.158,72-185,111.62-57.908,170-41c57.9,16.77,87.7,50.216,86.41,108.557-1.22,54.6-36.76,87.554-69.66,96.136S2356.58,750.508,2343,724c-12.87-25.114,8.81-32.781,35-37,40.84-6.58,69.24-24.69,59-63-14.17-53.008-89.28-30.548-138-5-56.54,29.647-58.34,119.592-48,163,15.55,65.294,83.5,108.512,110,178s29.14,224.46,9,284c-29.52,87.27-69.86,155.28-148,189-74.16,32-134.86,31.79-179.59,20.66-27.04-6.73-77.39-28.37-121.41-8.66-41.99,18.79-72.42,39.91-90,30-15.73-8.87-21.89-29.19-6-48,31.24-36.98,54.12-51.42,92-64,36.12-12,57-4,57-4s-72.15-43.07-103-72-44.67-76.02-17.3-120.46c21.43-34.81,57.47-53.51,102.59-55.12,44.1-1.58,82.32,32.04,82.32,32.04S2021.31,1087.6,1998,1031c-22.02-53.458-42.98-73.4-42.98-73.4s-32.57,34.189-59.02,56.4c-32.17,27.01-82.5,57.6-107,69-39.59,18.42-192.31,74.7-253,57-20.8-6.07-57.83-7.99-53.77-32.18,1.93-11.54,68.3,1.19,94.77-7.82,28.35-9.65,25.54-56.95,42-57,13.3-.04,4.84,26.99,31,28,27.85,1.07,121.91-50.81,138-64,40.56-33.243,142.59-116.962,77-87-23.09,10.548-120.38,34.778-207,29-33.71-2.248-21.99,43.836-40,44-20.83.189-11.18-40.489-38-50-50.47-17.9-100.62,4.034-102-12-1.49-17.29,30.02-25.877,58-33,17.04-4.339,55.91-3.872,74.54-3.672,22.49,0.241,80.98-.362,134.46-10.328,74.41-13.867,132-43,132-43s7.8-34.613-25-25c-45.29,13.271-78.28,1.4-87,2s-35.99,4.492-37.95-18.062S1706.92,775.085,1715,759c8.22-16.359,19.81-8.11,27.25-18.025s19.54-27.955,15.2-44.864-22.83-7-24.45-7.111c-12.96-.887.61-32.686,2-35,14.37-23.924,18.21-34.4,34-50,19.54-19.293,44.34-29.629,64.44-28.378A290.386,290.386,0,0,1,1869,580s23.35-27.592,52-29c23.62-1.161,51.8,9.458,47,39-3.84,23.649-19.31,26.639-19.31,26.639S1977.78,636.259,1990,656c12.76,20.621,23.5,58.922,23.28,81.129-0.19,19.159,14.96,17.843,77.72,50.871C2242.77,867.862,2288.96,1091.25,2285.57,1193.45Z"/>
  <path id="Rounded_Rectangle_1-47" data-name="Rounded Rectangle 1" class="cls-5" d="M1507.17,963h39.07a40,40,0,0,1,40,40v39.16a40,40,0,0,1-40,40h-39.07a40,40,0,0,1-40-40V1003A39.994,39.994,0,0,1,1507.17,963Z"/>
</svg>
